# xmcd
#
# Track frame offsets: 
#        150
#        12626
#        29892
#        48201
#        72805
#        91337
#        112609
#        127626
#        143385
#        171586
#        191525
#
# Disc length: 2657 seconds
#
# Revision: 4
# Processed by: cddbd v1.5.2PL0 Copyright (c) Steve Scherf et al.
# Submitted via: ExactAudioCopyFreeDBPlugin 1.0
#
DISCID=8a0a5f0b
DTITLE=Paleface - Helsinki - Shangri-La
DYEAR=2010
DGENRE=Hip-Hop
TTITLE0=Helsinki - Shangri-La (feat. Felix Zenger)
TTITLE1=Talonomistaja
TTITLE2=Merkit (feat. Fat Beat Sound System)
TTITLE3=Saapuu Elokuun Yö (feat. Hilja Grönfors)
TTITLE4=Syntyny Rellestää (feat. Timo Lassy)
TTITLE5=Riisto Räppääjä (feat. Dj Leijonamieli)
TTITLE6=Leijonakypärät (feat. Herra Ylppö)
TTITLE7=Karavaani Kulkee (feat. Terakaft)
TTITLE8=Sammuva Soihtu (feat. Davo, Wimme Saari and Tapani Rinne)
TTITLE9=Kalpeaakin Kalpeempaa (A Whiter Shade Of Pale) (feat. Janna and 
TTITLE9=Mika Mylläri)
TTITLE10="Miesten Vuoro" [Unlisted Track]
EXTD=
EXTT0=
EXTT1=
EXTT2=
EXTT3=
EXTT4=
EXTT5=
EXTT6=
EXTT7=
EXTT8=
EXTT9=
EXTT10=
PLAYORDER=
